/vscmnt/brussel_pixiu_data/_data_brussel/112/vsc11236/PredSimResults/SUBJ04mtu3D/worker1.mot
version=1
nRows=9
nColumns=50
inDegrees=yes
endheader
                time	         pelvis_tilt	         pelvis_list	     pelvis_rotation	           pelvis_tx	           pelvis_ty	           pelvis_tz	       hip_flexion_r	     hip_adduction_r	      hip_rotation_r	        knee_angle_r	       ankle_angle_r	         mtp_angle_r	       hip_flexion_l	     hip_adduction_l	      hip_rotation_l	        knee_angle_l	       ankle_angle_l	         mtp_angle_l	    lumbar_extension	      lumbar_bending	     lumbar_rotation	 ercspn_r/activation	 intobl_r/activation	 extobl_r/activation	    abd_r/activation	    add_r/activation	hamstrings_r/activation	bifemsh_r/activation	glut_max_r/activation	iliopsoas_r/activation	rect_fem_r/activation	  vasti_r/activation	gastroc_r/activation	 soleus_r/activation	tib_ant_r/activation	 ercspn_l/activation	 intobl_l/activation	 extobl_l/activation	    abd_l/activation	    add_l/activation	hamstrings_l/activation	bifemsh_l/activation	glut_max_l/activation	iliopsoas_l/activation	rect_fem_l/activation	  vasti_l/activation	gastroc_l/activation	 soleus_l/activation	tib_ant_l/activation	
          0.00000000	         -5.24104337	         -4.72888257	         11.89287219	          0.00000000	          0.88221282	         -0.01887213	         24.31238025	          0.58899508	         -4.43934761	          2.28359961	          5.20244845	          0.22573904	         -9.62982485	         -4.61157623	         13.42325871	         -9.28515529	         11.60016342	         25.33447576	         -3.46073600	          2.11649489	         -1.48305936	          0.08497955	          0.16396512	          0.01774869	          0.02383015	          0.12247467	          0.01872521	          0.01000011	          0.01000002	          0.05398816	          0.01224001	          0.01776421	          0.01000000	          0.01000000	          0.26187604	          0.04786552	          0.01000000	          0.01000000	          0.07343495	          0.01088870	          0.01640573	          0.12340286	          0.05195527	          0.29015329	          0.01000004	          0.01000000	          0.27752413	          0.26905209	          0.01224008	
          0.01344017	         -5.34660301	         -4.61113177	         11.73365880	          0.01531673	          0.88048787	         -0.01788568	         23.85664744	          0.85367597	         -3.21868805	          1.62613834	          4.86180576	          0.21038346	         -9.81515596	         -4.45801271	         12.61382141	        -10.71523026	         11.21106558	         27.05202987	         -3.16950204	          2.40423439	         -1.74670699	          0.06942769	          0.17865922	          0.01450053	          0.01946904	          0.10006083	          0.02410965	          0.01000909	          0.01581057	          0.04410787	          0.01000006	          0.01451322	          0.01498234	          0.01351193	          0.28758013	          0.06927633	          0.01000000	          0.01000000	          0.05999574	          0.02612804	          0.01340345	          0.10081911	          0.04244702	          0.25749731	          0.01000009	          0.01000001	          0.25249378	          0.25708551	          0.01000004	
          0.02688034	         -5.43618147	         -4.49609301	         11.49969402	          0.03090782	          0.87902511	         -0.01680096	         23.27012653	          1.12773516	         -2.05743511	          1.16319999	          4.34133040	          0.20763238	         -9.91287440	         -4.28792543	         11.76108023	        -12.36100186	         10.66623824	         28.78678051	         -2.87164587	          2.71907949	         -1.99973362	          0.07053670	          0.16439139	          0.01184681	          0.04808136	          0.08174888	          0.02949909	          0.06239712	          0.02694352	          0.03603576	          0.01000001	          0.01185718	          0.01224045	          0.01103913	          0.32048598	          0.09508949	          0.00999999	          0.01000000	          0.04901601	          0.02936816	          0.01095073	          0.08236837	          0.03467886	          0.22236057	          0.01000079	          0.01000005	          0.21335744	          0.23781958	          0.00999999	
          0.04032050	         -5.51038729	         -4.38165149	         11.18886589	          0.04659530	          0.87802042	         -0.01562237	         22.60975015	          1.42191853	         -0.97490166	          0.81325822	          3.80723842	          0.18991654	         -9.87290956	         -4.09168206	         10.84875510	        -14.27370015	          9.91799076	         30.49038411	         -2.58342632	          3.05870088	         -2.24086508	          0.06820384	          0.13430641	          0.01000000	          0.07180483	          0.06678823	          0.03321959	          0.05097797	          0.03749256	          0.02944091	          0.01000002	          0.01296521	          0.01000037	          0.01000003	          0.34526839	          0.11588198	          0.00999999	          0.01000000	          0.04004567	          0.03121072	          0.01030399	          0.06729428	          0.02833234	          0.19129829	          0.01000016	          0.01000005	          0.17431124	          0.20697534	          0.00999999	
          0.05376067	         -5.56953205	         -4.26576856	         10.80558602	          0.06225757	          0.87759075	         -0.01436973	         21.89936895	          1.72875862	          0.02489209	          0.50661992	          3.39150465	          0.17557933	         -9.67115276	         -3.86812572	          9.85899045	        -16.46444113	          8.95275891	         32.05105037	         -2.31272639	          3.41763207	         -2.46620843	          0.06174406	          0.10972722	          0.01000000	          0.09245058	          0.06016928	          0.03829593	          0.04164864	          0.03703995	          0.02405298	          0.01000001	          0.01418582	          0.01000002	          0.01000001	          0.36255833	          0.12904447	          0.00999999	          0.01000000	          0.03271698	          0.03713462	          0.01567982	          0.05497887	          0.02314728	          0.17240515	          0.01000003	          0.01000001	          0.14241081	          0.16909712	          0.00999999	
          0.06720084	         -5.61401500	         -4.14136117	         10.35593125	          0.07778950	          0.87775727	         -0.01306208	         21.15363435	          2.03248671	          0.94197493	          0.22197421	          3.10899741	          0.16357464	         -9.28699774	         -3.61489341	          8.77286501	        -18.94724520	          7.81406636	         33.28100465	         -2.06808749	          3.78436256	         -2.67277641	          0.05476963	          0.08964622	          0.01000000	          0.11205118	          0.06166532	          0.04172407	          0.03402666	          0.03049705	          0.01965108	          0.01000001	          0.01397938	          0.01000002	          0.01000001	          0.36587706	          0.13773975	          0.01000000	          0.01000000	          0.02672950	          0.04629565	          0.02103914	          0.04491730	          0.01891114	          0.15698656	          0.01000001	          0.01000000	          0.11634844	          0.13815092	          0.00999999	
          0.08064101	         -5.64435276	         -3.99704762	          9.84600908	          0.09310487	          0.87850406	         -0.01171798	         20.37914092	          2.31305261	          1.77873570	         -0.04553708	          2.96114995	          0.15417578	         -8.70227069	         -3.33183895	          7.57232555	        -21.73455361	          6.57678799	         33.93504369	         -1.85796392	          4.14339989	         -2.85929578	          0.04726739	          0.07324021	          0.01000000	          0.12180923	          0.05038009	          0.04440309	          0.02779959	          0.02512884	          0.01605477	          0.01000001	          0.01555301	          0.01000005	          0.01000003	          0.35847731	          0.14088207	          0.01000000	          0.01000001	          0.02183777	          0.05435785	          0.02397971	          0.03669711	          0.01545024	          0.14112783	          0.01000000	          0.01000000	          0.09505570	          0.11286814	          0.00999999	
          0.09408118	         -5.66129998	         -3.81726324	          9.28017429	          0.10814698	          0.87981553	         -0.01035425	         19.57044309	          2.54819857	          2.53712175	         -0.27656709	          2.92446940	          0.14858813	         -7.90519196	         -3.02129015	          6.25657162	        -24.82551980	          5.25214667	         33.88824945	         -1.68904049	          4.47531407	         -3.02386777	          0.04231289	          0.05983664	          0.01000000	          0.12078286	          0.04116012	          0.04709740	          0.02271216	          0.02246876	          0.01311661	          0.01000000	          0.01444555	          0.01000027	          0.01000018	          0.34495408	          0.13885179	          0.01000000	          0.01000001	          0.01784128	          0.06373583	          0.02348626	          0.02998138	          0.01262272	          0.12721807	          0.01000000	          0.00999999	          0.07765970	          0.09221232	          0.00999999	
          0.10752135	         -5.66492387	         -3.58746015	          8.66173988	          0.12290352	          0.88162188	         -0.00898220	         18.72439529	          2.71910830	          3.22636218	         -0.45758823	          2.95586500	          0.14716970	         -6.89855899	         -2.68949908	          4.85285230	        -28.18106430	          3.74553244	         33.22709274	         -1.56375089	          4.76193799	         -3.16408264	          0.03456931	          0.04888604	          0.01000000	          0.11126886	          0.03362748	          0.05018486	          0.01855586	          0.01994922	          0.01071617	          0.01000000	          0.01485820	          0.01000021	          0.01000021	          0.33114279	          0.13347030	          0.01000000	          0.01000001	          0.01457617	          0.07625785	          0.02044799	          0.03499824	          0.01031265	          0.11626242	          0.01000000	          0.00999999	          0.06344733	          0.07533669	          0.00999999	
